<svg xmlns="http://www.w3.org/2000/svg" fill="none" viewBox="0 0 75 75" id="Vitest--Streamline-Svg-Logos" height="75" width="75">
  <desc>
    Vitest Streamline Icon: https://streamlinehq.com
  </desc>
  <path fill="#fcc72b" d="M55.891875 24.315625 38.335546875 49.6996875c-0.18609375 0.26914062499999997 -0.4553125 0.47078125000000004 -0.76671875 0.57421875 -0.31140625 0.103515625 -0.648046875 0.10250000000000001 -0.958828125 -0.00140625 -0.310703125 -0.10445312500000001 -0.5786718750000001 -0.307109375 -0.763203125 -0.57671875 -0.184453125 -0.270078125 -0.27546875000000004 -0.59265625 -0.258984375 -0.9186718749999999l0.7025781249999999 -14.014609375000001 -11.343203124999999 -2.405703125c-0.242421875 -0.051328124999999995 -0.46828125000000004 -0.16148437499999999 -0.6576562499999999 -0.320546875 -0.189296875 -0.1590625 -0.33625 -0.362265625 -0.4278125 -0.591484375 -0.09148437499999999 -0.22929687499999998 -0.124765625 -0.4775 -0.096875 -0.7228125 0.027890625000000002 -0.245234375 0.116015625 -0.48 0.25671875 -0.683359375L41.578125 4.6544296875c0.18617187500000001 -0.2692890625 0.4553125 -0.47085156249999993 0.76671875 -0.5741875 0.311484375 -0.10332812499999999 0.648125 -0.102796875 0.9589062500000001 0.0016015625000000001 0.31078125 0.104359375 0.57875 0.30684374999999997 0.763203125 0.5767578125 0.184453125 0.26987500000000003 0.27546875000000004 0.5924062499999999 0.258984375 0.9186796875000001l-0.70265625 14.014828125000001 11.343125 2.405390625c0.242421875 0.05140625 0.46828125000000004 0.16148437499999999 0.6578125 0.320546875 0.189453125 0.15914062499999998 0.336171875 0.362265625 0.4275 0.5915625 0.091796875 0.22921875 0.12484375 0.4775 0.0971875 0.722734375 -0.027734375 0.2453125 -0.116171875 0.47984374999999996 -0.25703125 0.6832812500000001Z" stroke-width="0.7813"></path>
  <path fill="#729b1b" d="M37.506796875 70.99625c-0.466953125 0.00046875 -0.929375 -0.090859375 -1.36078125 -0.2696875 -0.43140625 -0.17875 -0.8232812500000001 -0.44109375 -1.15296875 -0.771484375L18.404218750000002 53.3675c-0.66359375 -0.66703125 -1.0355468749999999 -1.57015625 -1.034375 -2.511171875 0.00125 -0.9410156249999999 0.375625 -1.843671875 1.04109375 -2.50875 0.665390625 -0.665546875 1.5676562500000002 -1.04015625 2.508671875 -1.0415625 0.9411718750000001 -0.001015625 1.8443749999999999 0.37070312499999997 2.511640625 1.0342968750000001l14.075546875 14.073984375 30.663828125 -30.662265625c0.6684375 -0.657734375 1.5696093750000002 -1.024609375 2.507265625 -1.02078125 0.9381250000000001 0.003828125 1.8363281249999999 0.378046875 2.498984375 1.04109375 0.663125 0.663125 1.037734375 1.5614062499999999 1.0416406249999999 2.499140625 0.003359375 0.9377343749999999 -0.3634375 1.8390625 -1.02125 2.5075L40.02 69.955078125c-0.32968749999999997 0.330859375 -0.721484375 0.592734375 -1.152734375 0.771484375 -0.43125 0.178828125 -0.89359375 0.27015625 -1.3604687500000001 0.2696875Z" stroke-width="0.7813"></path>
  <path fill="#729b1b" fill-opacity=".5" d="M37.492734375 70.99625c0.466953125 0.00046875 0.929453125 -0.090859375 1.360859375 -0.2696875 0.43140625 -0.17875 0.823203125 -0.44109375 1.15296875 -0.771484375L56.59531249999999 53.3675c0.663671875 -0.66703125 1.03578125 -1.57015625 1.0342968750000001 -2.511171875 -0.0009375 -0.9410156249999999 -0.375546875 -1.843671875 -1.04109375 -2.50875 -0.665546875 -0.665546875 -1.567734375 -1.04015625 -2.50875 -1.0415625 -0.9410156249999999 -0.001015625 -1.844140625 0.37070312499999997 -2.511640625 1.0342968750000001L37.492734375 62.414296875 6.829031250000001 31.75203125c-0.6684765625 -0.657734375 -1.5697578125 -1.024609375 -2.5074765625 -1.02078125 -0.9377656249999999 0.003828125 -1.8360390625 0.378046875 -2.4991171875 1.04109375 -0.6631015625000001 0.663125 -1.0373125 1.5614062499999999 -1.04115625 2.499140625 -0.0037914062499999996 0.9377343749999999 0.36309375 1.8390625 1.0207734375 2.5075L34.97953125 69.955078125c0.329765625 0.330859375 0.721484375 0.592734375 1.152734375 0.771484375 0.431328125 0.178828125 0.8936718749999999 0.27015625 1.3604687500000001 0.2696875Z" stroke-width="0.7813"></path>
</svg>